<?xml version="1.0" encoding="utf-8"?>
<!-- Generator: Adobe Illustrator 19.2.1, SVG Export Plug-In . SVG Version: 6.00 Build 0)  -->
<svg version="1.1" id="Layer_1" xmlns="http://www.w3.org/2000/svg" xmlns:xlink="http://www.w3.org/1999/xlink" x="0px" y="0px"
	 viewBox="0 0 120 72" enable-background="new 0 0 120 72" xml:space="preserve">
<g>
	<rect x="1.1" y="1.1" fill="#FFFFFF" width="117.8" height="69.8"/>
	<path fill="#F2F2F2" d="M117.8,2.3v67.5H2.3V2.3H117.8 M120,0H0v72h120V0L120,0z"/>
</g>
<g>
	<g>
		<path fill="#009CDE" d="M88.1,27.4h-5.7c-0.4,0-0.7,0.3-0.8,0.7l-2.3,14.7c0,0.3,0.2,0.6,0.5,0.6h2.9c0.3,0,0.5-0.2,0.5-0.5
			l0.7-4.2c0.1-0.4,0.4-0.7,0.8-0.7h1.8c3.8,0,5.9-1.8,6.5-5.4c0.3-1.6,0-2.8-0.7-3.7C91.4,27.9,90,27.4,88.1,27.4z M88.8,32.8
			c-0.3,2.1-1.9,2.1-3.4,2.1h-0.9l0.6-3.8c0-0.2,0.2-0.4,0.5-0.4H86c1,0,2,0,2.5,0.6C88.8,31.5,88.9,32,88.8,32.8z"/>
		<path fill="#003087" d="M47.3,27.4h-5.7c-0.4,0-0.7,0.3-0.8,0.7l-2.3,14.7c0,0.3,0.2,0.6,0.5,0.6h2.7c0.4,0,0.7-0.3,0.8-0.7l0.6-4
			c0.1-0.4,0.4-0.7,0.8-0.7h1.8c3.8,0,5.9-1.8,6.5-5.4c0.3-1.6,0-2.8-0.7-3.7C50.7,27.9,49.2,27.4,47.3,27.4z M48,32.8
			c-0.3,2.1-1.9,2.1-3.4,2.1h-0.9l0.6-3.8c0-0.2,0.2-0.4,0.5-0.4h0.4c1,0,2,0,2.5,0.6C48,31.5,48.1,32,48,32.8z"/>
		<path fill="#003087" d="M64.4,32.7h-2.7c-0.2,0-0.4,0.2-0.5,0.4l-0.1,0.8l-0.2-0.3c-0.6-0.9-1.9-1.1-3.2-1.1c-3,0-5.6,2.3-6.1,5.5
			c-0.3,1.6,0.1,3.1,1,4.2c0.8,1,2,1.4,3.4,1.4c2.4,0,3.8-1.6,3.8-1.6l-0.1,0.8c0,0.3,0.2,0.6,0.5,0.6h2.5c0.4,0,0.7-0.3,0.8-0.7
			l1.5-9.4C64.9,33,64.7,32.7,64.4,32.7z M60.6,38c-0.3,1.6-1.5,2.6-3.1,2.6c-0.8,0-1.4-0.3-1.8-0.7c-0.4-0.5-0.6-1.2-0.4-1.9
			c0.2-1.6,1.5-2.6,3.1-2.6c0.8,0,1.4,0.3,1.8,0.7C60.5,36.6,60.7,37.3,60.6,38z"/>
		<path fill="#009CDE" d="M105.2,32.7h-2.7c-0.2,0-0.4,0.2-0.5,0.4l-0.1,0.8l-0.2-0.3c-0.6-0.9-1.9-1.1-3.2-1.1
			c-3,0-5.6,2.3-6.1,5.5c-0.3,1.6,0.1,3.1,1,4.2c0.8,1,2,1.4,3.4,1.4c2.4,0,3.8-1.6,3.8-1.6l-0.1,0.8c0,0.3,0.2,0.6,0.5,0.6h2.5
			c0.4,0,0.7-0.3,0.8-0.7l1.5-9.4C105.7,33,105.5,32.7,105.2,32.7z M101.4,38c-0.3,1.6-1.5,2.6-3.1,2.6c-0.8,0-1.4-0.3-1.8-0.7
			C96,39.4,95.9,38.7,96,38c0.2-1.6,1.5-2.6,3.1-2.6c0.8,0,1.4,0.3,1.8,0.7C101.3,36.6,101.5,37.3,101.4,38z"/>
		<path fill="#003087" d="M79,32.7h-2.8c-0.3,0-0.5,0.1-0.7,0.3l-3.8,5.6l-1.6-5.4c-0.1-0.3-0.4-0.6-0.8-0.6h-2.7
			c-0.3,0-0.6,0.3-0.5,0.6l3,8.9l-2.9,4c-0.2,0.3,0,0.8,0.4,0.8h2.7c0.3,0,0.5-0.1,0.7-0.3l9.2-13.2C79.6,33.1,79.4,32.7,79,32.7z"
			/>
		<path fill="#009CDE" d="M108.4,27.8l-2.3,14.9c0,0.3,0.2,0.6,0.5,0.6h2.4c0.4,0,0.7-0.3,0.8-0.7L112,28c0-0.3-0.2-0.6-0.5-0.6
			h-2.6C108.6,27.4,108.4,27.6,108.4,27.8z"/>
	</g>
	<g>
		<path fill="#003087" d="M18.8,46l0.8-4.9l0-0.3c0-0.2,0.2-0.4,0.3-0.6c0.2-0.2,0.4-0.2,0.7-0.2h0.6c1,0,2-0.1,2.8-0.3
			c0.9-0.2,1.7-0.6,2.3-1.1c0.7-0.5,1.3-1.1,1.8-1.9c0.5-0.8,0.8-1.8,1.1-2.9c0.2-1,0.2-1.9,0.1-2.6c-0.1-0.8-0.4-1.5-0.9-2
			c-0.3-0.3-0.7-0.6-1.1-0.9l0,0l0,0c0.2-1,0.1-1.8,0-2.5c-0.2-0.7-0.5-1.4-1-2c-1.1-1.3-3.1-1.9-6-1.9h-7.8c-0.3,0-0.5,0.1-0.7,0.3
			c-0.2,0.2-0.3,0.4-0.4,0.7L8,43.4c0,0.2,0,0.4,0.1,0.5c0.1,0.1,0.3,0.2,0.5,0.2h4.9l0,0l-0.3,2.1c0,0.2,0,0.3,0.1,0.5
			c0.1,0.1,0.3,0.2,0.4,0.2h4.1c0.2,0,0.5-0.1,0.6-0.2c0.2-0.1,0.3-0.4,0.3-0.6L18.8,46z"/>
		<g>
			<path fill="#003087" d="M16,28.2c0.1-0.3,0.3-0.6,0.5-0.7c0.1-0.1,0.3-0.1,0.4-0.1h6.1c0.7,0,1.4,0,2,0.1c0.2,0,0.4,0.1,0.5,0.1
				c0.2,0,0.3,0.1,0.5,0.1c0.1,0,0.2,0,0.2,0.1c0.3,0.1,0.6,0.2,0.8,0.4c0.3-2,0-3.3-1.1-4.5c-1.2-1.3-3.3-1.9-6-1.9h-7.8
				c-0.6,0-1,0.4-1.1,0.9L8,43.4c-0.1,0.4,0.3,0.8,0.7,0.8h4.8l1.2-7.7L16,28.2z"/>
			<path fill="#009CDE" d="M27.3,28.2L27.3,28.2L27.3,28.2c0,0.1,0,0.3-0.1,0.5c-1,5.3-4.6,7.1-9.1,7.1h-2.3c-0.6,0-1,0.4-1.1,0.9v0
				v0l-1.2,7.5l-0.3,2.1c-0.1,0.4,0.2,0.7,0.6,0.7h4.1c0.5,0,0.9-0.4,1-0.8l0-0.2l0.8-4.9l0-0.3c0.1-0.5,0.5-0.8,1-0.8h0.6
				c4,0,7-1.6,8-6.3c0.4-1.9,0.2-3.6-0.8-4.7C28.1,28.7,27.7,28.4,27.3,28.2z"/>
			<path fill="#012169" d="M26.2,27.7c-0.2,0-0.3-0.1-0.5-0.1c-0.2,0-0.3-0.1-0.5-0.1c-0.6-0.1-1.3-0.1-2-0.1H17
				c-0.2,0-0.3,0-0.4,0.1c-0.3,0.1-0.5,0.4-0.5,0.7l-1.3,8.3l0,0.2c0.1-0.5,0.6-0.9,1.1-0.9h2.3c4.5,0,8.1-1.8,9.1-7.1
				c0-0.2,0.1-0.3,0.1-0.5c-0.3-0.1-0.5-0.3-0.8-0.4C26.3,27.8,26.3,27.8,26.2,27.7z"/>
		</g>
	</g>
</g>
</svg>
