<?xml version="1.0" encoding="utf-8"?>
<!-- Generator: Adobe Illustrator 27.4.1, SVG Export Plug-In . SVG Version: 6.00 Build 0)  -->
<svg version="1.1" id="Layer_1" xmlns="http://www.w3.org/2000/svg" xmlns:xlink="http://www.w3.org/1999/xlink" x="0px" y="0px"
	 viewBox="0 0 117.8 69.9" style="enable-background:new 0 0 117.8 69.9;" xml:space="preserve">
<style type="text/css">
	.st0{fill:#FFFFFF;}
	.st1{fill:#008CFF;}
</style>
<rect x="0" y="0.1" class="st0" width="117.8" height="69.8"/>
<g>
	<g>
		<path class="st1" d="M18.8,25.8c0.4,0.8,0.6,1.7,0.6,3.2c0,2.6-1.8,6.3-3.3,8.7L14.5,25L8,25.6l3,17.8h7.5
			c3.3-4.3,7.3-10.4,7.3-15.1c0-1.5-0.3-2.6-1-3.8L18.8,25.8z M36.8,24.6c-6.8,0-10.1,5.9-10.1,11.5c0,4.3,2,7.7,7.7,7.7
			c2.2,0,4.5-0.5,6-1.2l0.8-5.3c-2.1,1.1-3.7,1.5-5.4,1.5c-1.6,0-2.7-0.8-2.7-2.9c3.5,0,9.6-1.5,9.6-6.2
			C42.6,26.7,40.5,24.6,36.8,24.6z M33.2,32.4c0.2-2,1.7-3.5,2.9-3.5c0.7,0,1.3,0.4,1.3,1.2C37.4,31.9,34.4,32.4,33.2,32.4z
			 M57.1,24.6c-2.5,0-4.2,0.9-5.5,1.8l-0.1-1.5H46l-2.9,18.5h6.4l2-13c0.5-0.3,1.4-0.7,2.2-0.7c0.6,0,1.1,0.2,1.1,1
			c0,0.4-0.1,1-0.1,1.3l-1.8,11.3h6.4l2-12.3c0.1-0.7,0.2-1.6,0.2-2.3C61.4,26.3,60.3,24.6,57.1,24.6z M86.3,24.6
			c-2.4,0-4.1,0.7-5.9,2c-0.7-1.2-2-2-4-2c-2.3,0-4,0.9-5.3,1.9L70.9,25h-5.5l-2.9,18.5h6.4l2-13c0.5-0.3,1.4-0.7,2.2-0.7
			c0.6,0,1.1,0.2,1.1,1.1c0,0.2-0.1,0.6-0.1,0.9l-1.8,11.5h6.4l2-13c0.6-0.3,1.4-0.7,2.2-0.7c0.6,0,1.1,0.2,1.1,1.1
			c0,0.2-0.1,0.6-0.1,0.9l-1.8,11.5h6.4l2-12.3c0.1-0.7,0.2-1.6,0.2-2.3C90.6,26.3,89.5,24.6,86.3,24.6z M102.5,24.6
			c-7.1,0-10.2,5.4-10.2,11.3c0,4.4,1.8,8,7.2,8c7.3,0,10.3-6,10.3-11.7C109.8,27.8,107.9,24.6,102.5,24.6z M100.4,39
			c-1.1,0-1.6-1.1-1.6-2.8c0-2.3,0.5-6.7,3-6.7c1.1,0,1.5,1,1.5,2.5C103.3,34.3,102.7,39,100.4,39z"/>
	</g>
</g>
</svg>
