<?xml version="1.0" encoding="utf-8"?>
<!-- Generator: Adobe Illustrator 25.0.0, SVG Export Plug-In . SVG Version: 6.00 Build 0)  -->
<svg version="1.1" id="Layer_1" xmlns="http://www.w3.org/2000/svg" xmlns:xlink="http://www.w3.org/1999/xlink" x="0px" y="0px"
	 viewBox="0 0 53 32" style="enable-background:new 0 0 53 32;" xml:space="preserve">
<path fill="#E2001A" d="M32.9,32H20.1c-2.5,0-4.5-2-4.5-4.5V15.8c0-2.5,2-4.5,4.5-4.5H33c2.5,0,4.5,2,4.5,4.5v11.6
	C37.5,30,35.4,32,32.9,32"/>
<path fill="#E2001A" d="M18.9,10c0.6-3.5,3.9-6.1,7.6-6.1s7,2.6,7.6,6.1c1.1,0.2,2.2,0.8,3,1.6v-1.1C37.1,4.7,32.4,0,26.5,0
	c-5.8,0-10.6,4.7-10.6,10.6v1.1C16.7,10.8,17.8,10.3,18.9,10"/>
</svg>
